<svg width="512" height="512" viewBox="0 0 512 512" fill="none" xmlns="http://www.w3.org/2000/svg">
  <rect width="512" height="512" rx="120" fill="white"/>
  <g transform="translate(106, 106) scale(12.5)">
    <!-- Left Shield -->
    <path d="M 11.4 4 C 11.1 3.8, 11.0 3.5, 10.7 3.5 C 5 3.5, 2 7, 2 12 C 2 17, 5 20.5, 10.7 20.5 C 11.0 20.5, 11.1 20.2, 11.4 20 L 11.4 4 Z" stroke="#059669" stroke-width="1.5" fill="none" stroke-linecap="round" stroke-linejoin="round"/>
    <!-- Right Shield -->
    <path d="M 12.6 4 C 12.9 3.8, 13.0 3.5, 13.3 3.5 C 19 3.5, 22 7, 22 12 C 22 17, 19 20.5, 13.3 20.5 C 13.0 20.5, 12.9 20.2, 12.6 20 L 12.6 4 Z" stroke="#059669" stroke-width="1.5" fill="none" stroke-linecap="round" stroke-linejoin="round"/>
    <!-- Circuitry -->
    <path d="M 5.6 8 q 0.5 0.5 1 0 q 0.5 -0.5 1 0 M 5.6 12 q 0.5 0.5 1 0 q 0.5 -0.5 1 0 M 5.6 16 q 0.5 0.5 1 0 q 0.5 -0.5 1 0 M 16.4 8 q 0.5 0.5 1 0 q 0.5 -0.5 1 0 M 16.4 12 q 0.5 0.5 1 0 q 0.5 -0.5 1 0 M 16.4 16 q 0.5 0.5 1 0 q 0.5 -0.5 1 0" stroke="#f59e0b" stroke-width="1.5" fill="none" stroke-linecap="round" />
  </g>
</svg>